<?xml version="1.0" ?><svg height="64" viewBox="0 0 64 64" width="64" xmlns="http://www.w3.org/2000/svg"><title/><g data-name="set-016@nurse-white-female" id="e7020537-4cc9-4ced-ad00-214e8b705523"><g data-name="nurse-white-female" id="eba49524-c0fe-476c-b543-a098c3f644c3"><g data-name="nurse-white-female-2" id="b695da3e-520e-4310-b7c2-07d1fb7fe848"><g data-name="Icons" id="e4d624d6-76d1-4f27-820b-55e11ad2a75f"><g data-name="Women" id="b86cbeff-9d19-4443-9280-5fc5de5697a6"><path d="M44,32.505a6,6,0,0,1-6,6H26.47c-3.31,0-6.47-2.73-6.47-6.06V22.005c0-6.9,2.62-13,12.06-13s11.94,6.1,11.94,13Z" fill="#333" stroke="#333" stroke-miterlimit="10" stroke-width="1.5"/><path d="M55.5,49.615a6,6,0,0,0-3.5-4l-14-4H26l-14,4a6,6,0,0,0-3.5,4c-.25,1.53-.5,3-.5,3,7.64,3.38,15.11,4,24,4s16.36-.63,24-4C56,52.615,55.75,51.145,55.5,49.615Z" fill="#d362a4"/><path d="M12.1,45.6a5.511,5.511,0,0,0-3.6,4c-.25,1.52-.5,3-.5,3l.47.2v-.2a5.511,5.511,0,0,1,3.6-4l11-3.15A4,4,0,0,0,26,41.625Z" fill="#dd83bf"/><path d="M55.5,49.625a5.511,5.511,0,0,0-3.6-4l-13.9-4a4,4,0,0,0,2.88,3.83l11,3.15a5.511,5.511,0,0,1,3.6,4v.2l.47-.2S55.75,51.145,55.5,49.625Z" fill="#d873b2"/><polygon fill="#8f715c" points="38 41.615 32 48.615 26 41.615 26 36.615 38 36.615 38 41.615"/><line fill="none" stroke="#343433" stroke-miterlimit="10" stroke-width="1.5" x1="38" x2="38" y1="42.615" y2="36.615"/><line fill="none" stroke="#343433" stroke-miterlimit="10" stroke-width="1.5" x1="26" x2="26" y1="42.615" y2="36.615"/><path d="M38,41.615l14,4a6,6,0,0,1,3.5,4c.25,1.53.5,3,.5,3-7.64,3.37-15.12,4-24,4s-16.36-.62-24-4c0,0,.25-1.47.5-3a6,6,0,0,1,3.5-4l14-4" fill="none" stroke="#343433" stroke-linecap="round" stroke-linejoin="round" stroke-width="1.5"/><path d="M16,52.615H14v-2l5-5a8,8,0,0,1,8-8H37a8,8,0,0,1,8,8v8" fill="none" stroke="#333" stroke-linejoin="round" stroke-width="1.5"/><polyline fill="none" points="22 52.615 24 52.615 24 50.615 19 45.615" stroke="#333" stroke-linejoin="round" stroke-width="1.5"/><circle cx="45" cy="53.115" fill="#ccc" r="2.5" stroke="#333" stroke-linecap="round" stroke-linejoin="round" stroke-width="1.5"/><circle cx="16" cy="52.615" fill="#333" r="1.25"/><circle cx="22" cy="52.615" fill="#333" r="1.25"/><polyline fill="none" points="38 41.615 32 48.615 26 41.615" stroke="#343433" stroke-linecap="round" stroke-linejoin="round" stroke-width="1.5"/><path d="M55.5,49.615a6,6,0,0,0-3.5-4l-14-4H26l-14,4a6,6,0,0,0-3.5,4c-.25,1.53-.5,3-.5,3,7.64,3.38,15.11,4,24,4s16.36-.63,24-4C56,52.615,55.75,51.145,55.5,49.615Z" fill="#d362a4"/><path d="M12.1,45.6a5.511,5.511,0,0,0-3.6,4c-.25,1.52-.5,3-.5,3l.47.2v-.2a5.511,5.511,0,0,1,3.6-4l11-3.15A4,4,0,0,0,26,41.625Z" fill="#dd83bf"/><path d="M55.5,49.625a5.511,5.511,0,0,0-3.6-4l-13.9-4a4,4,0,0,0,2.88,3.83l11,3.15a5.511,5.511,0,0,1,3.6,4v.2l.47-.2S55.75,51.145,55.5,49.625Z" fill="#d873b2"/><polygon fill="#edccc3" points="38 41.615 32 48.615 26 41.615 26 36.615 38 36.615 38 41.615"/><path d="M26.25,39.785l4.67,4.75A4.128,4.128,0,0,1,32,47.315a2.438,2.438,0,0,0,.24,1l5.5-6.42v-3.18H26.25Z" fill="#ddb9b3"/><line fill="none" stroke="#343433" stroke-miterlimit="10" stroke-width="1.5" x1="38" x2="38" y1="42.615" y2="36.615"/><line fill="none" stroke="#343433" stroke-miterlimit="10" stroke-width="1.5" x1="26" x2="26" y1="42.615" y2="36.615"/><path d="M38,41.615l14,4a6,6,0,0,1,3.5,4c.25,1.53.5,3,.5,3-7.64,3.37-15.12,4-24,4s-16.36-.62-24-4c0,0,.25-1.47.5-3a6,6,0,0,1,3.5-4l14-4" fill="none" stroke="#343433" stroke-linecap="round" stroke-linejoin="round" stroke-width="1.5"/><path d="M16,52.615H14v-2l5-5a8,8,0,0,1,8-8H37a8,8,0,0,1,8,8v8" fill="none" stroke="#333" stroke-linejoin="round" stroke-width="1.5"/><polyline fill="none" points="22 52.615 24 52.615 24 50.615 19 45.615" stroke="#333" stroke-linejoin="round" stroke-width="1.5"/><circle cx="45" cy="53.115" fill="#ccc" r="2.5" stroke="#333" stroke-linecap="round" stroke-linejoin="round" stroke-width="1.5"/><circle cx="16" cy="52.615" fill="#333" r="1.25"/><circle cx="22" cy="52.615" fill="#333" r="1.25"/><polyline fill="none" points="38 41.615 32 48.615 26 41.615" stroke="#343433" stroke-linecap="round" stroke-linejoin="round" stroke-width="1.5"/><path d="M32,10.775c8,0,10.5,4.59,10.5,10v2c1.73,0,2.28,1.71,2,4-.24,1.95-1,4-3,4v1.5c0,3-2.39,4.36-5.18,7.26a4.81,4.81,0,0,1-4.32,1.7,4.831,4.831,0,0,1-4.32-1.74c-2.79-2.9-5.18-4.26-5.18-7.26v-1.46c-2,0-2.76-2.05-3-4-.28-2.29.27-4,2-4v-2C21.5,15.325,24,10.775,32,10.775Z" fill="#edccc3"/><path d="M42.08,22.845v-2c0-5.41-2-10.51-10-10.51a14.621,14.621,0,0,0-2.77.24v10.37a3.9,3.9,0,0,1-1.27,2.88.45.45,0,0,0,.2.77,2.582,2.582,0,0,1,1.88,1.88.49.49,0,0,0,.583.375.5.5,0,0,0,.187-.085,1.745,1.745,0,0,1,.58-.32.49.49,0,0,1,.595.355.528.528,0,0,1,.015.125v2.08a1.11,1.11,0,0,0,.62.94c.57.32.16,1.4-.62,1.4h0a1.7,1.7,0,0,1-.89-.23c-.74-.37-1.43.39-1.27.68s.34,0,1.08.35a2.658,2.658,0,0,0,1.1.27V36.1a.4.4,0,0,0,.31.38c1.31.31,2,2.49-.31,3h0a1.24,1.24,0,0,0-1,1.2v.45a6.511,6.511,0,0,0,5.05-1.3l2.56-2A6.53,6.53,0,0,0,41,33.855l.55-3h0c1.8-.12,2.77-2.08,3-4C44.87,24.545,43.81,22.845,42.08,22.845Z" fill="#e5c2ba"/><circle cx="27.5" cy="26.755" fill="#333" r="0.75"/><path d="M29.31,27.125c-.58-.33-2.07-2.25-4-.33a2.467,2.467,0,0,1-.67-.46,4.118,4.118,0,0,1,3-.28" fill="#333" stroke="#333" stroke-linecap="round" stroke-miterlimit="10" stroke-width="0.504"/><path d="M34.76,27.125c.58-.33,2.07-2.25,4-.33a2.467,2.467,0,0,0,.67-.46,4.118,4.118,0,0,0-3-.28" fill="#333" stroke="#333" stroke-linecap="round" stroke-miterlimit="10" stroke-width="0.504"/><circle cx="36.5" cy="26.755" fill="#333" r="0.75"/><path d="M24.57,24.465a3.486,3.486,0,0,1,1.31-.53,4.446,4.446,0,0,1,1.41,0,11.249,11.249,0,0,1,1.33.31,8.357,8.357,0,0,0,1.22.28h0a.51.51,0,1,1,.057,1.018.5.5,0,0,1-.167-.018h-.07a9.021,9.021,0,0,1-1.32-.5,11.982,11.982,0,0,0-1.2-.47,3.667,3.667,0,0,0-1.22-.19,1.914,1.914,0,0,0-1.15.38.18.18,0,0,1-.262-.247.218.218,0,0,1,.042-.033Z" fill="#333"/><path d="M39.15,24.755a1.82,1.82,0,0,0-1.15-.37,4.012,4.012,0,0,0-1.22.2,11.982,11.982,0,0,0-1.2.47,7.886,7.886,0,0,1-1.33.49.52.52,0,0,1-.61-.38.51.51,0,0,1,.38-.61h.08a7.269,7.269,0,0,0,1.21-.27,11.143,11.143,0,0,1,1.33-.28,4.446,4.446,0,0,1,1.41,0,3.577,3.577,0,0,1,1.31.53.18.18,0,0,1-.18.312.166.166,0,0,1-.03-.022S39.16,24.755,39.15,24.755Z" fill="#333"/><path d="M30,32.335c1,0,1,.51,2,.51s1-.51,2-.51" fill="none" stroke="#d8b5af" stroke-linecap="round" stroke-miterlimit="10" stroke-width="0.5"/><line fill="none" stroke="#d8b5af" stroke-linecap="round" stroke-miterlimit="10" stroke-width="0.5" x1="32.04" x2="32.04" y1="32.685" y2="33.435"/><path d="M30,36.275a2.18,2.18,0,0,0,1.56.56h1a2.575,2.575,0,0,0,1.69-.6" fill="none" stroke="#d8b5af" stroke-linecap="round" stroke-miterlimit="10" stroke-width="0.5"/><line fill="none" stroke="#d8b5af" stroke-linecap="round" stroke-miterlimit="10" stroke-width="0.5" x1="29.09" x2="28.59" y1="34.785" y2="35.785"/><line fill="none" stroke="#d8b5af" stroke-linecap="round" stroke-miterlimit="10" stroke-width="0.5" x1="35.09" x2="35.59" y1="34.785" y2="35.785"/><path d="M32.87,34.075a1.841,1.841,0,0,1-.78.2c-.2,0-.22,0-.68-.2-.8-.32-.85.66-2.33,1.2l.92.94a2.149,2.149,0,0,0,1.55.56h1a2.5,2.5,0,0,0,1.67-.6l.86-.9C33.67,34.765,33.67,33.765,32.87,34.075Z" fill="#a56659"/><path d="M35.08,35.275c-1,0-1.49-.49-3,0h0c-1.48-.5-2,0-3,0" fill="none" stroke="#743f40" stroke-linecap="round" stroke-miterlimit="10" stroke-width="0.5"/><path d="M30.09,31.845c1,0,1,.5,2,.5s1-.5,2-.5" fill="none" stroke="#ba8d86" stroke-linecap="round" stroke-miterlimit="10" stroke-width="0.75"/><path d="M32,10.775c8,0,10.5,4.59,10.5,10v2c1.73,0,2.28,1.71,2,4-.24,1.95-1,4-3,4v1.5c0,3-2.42,4.29-5.21,7.2A4.841,4.841,0,0,1,32,41.235a4.939,4.939,0,0,1-4.35-1.8c-2.79-2.91-5.15-4.2-5.15-7.2v-1.46c-2,0-2.76-2.05-3-4-.28-2.29.27-4,2-4v-2C21.5,15.325,24,10.775,32,10.775Z" fill="none" stroke="#333" stroke-linejoin="round" stroke-width="1.5"/><path d="M31.51,7.775c-3.42,0-6.7,1.29-8.5,3.5-3.51.73-5,3.61-5,6.5,0,4.53,4.25,8.15,4.25,9.5v-2.5c0-3.44,2.47-1.68,3.25-5,7.37,2.38,10.41,4.93,12,7.5a13.162,13.162,0,0,0,6,5.5A30.721,30.721,0,0,0,46,22.275a14.41,14.41,0,0,0-14.319-14.5H31.51Z" fill="#333"/><path d="M18.26,19.775c.25-3.54,1.62-6.87,5.75-7.54,3.73-4.57,13.89-4.09,19.5,2-5.06-7.8-16.14-8.3-20.5-3C19.05,12.1,17.26,15.845,18.26,19.775Z" fill="#444"/><path d="M43.2,32.645a37.888,37.888,0,0,0,1.59-5.09,22.893,22.893,0,0,0,.69-5.21,14.291,14.291,0,0,0-3.72-9.42,13.442,13.442,0,0,0-9-4.34,12.992,12.992,0,0,0-5,.52,8.788,8.788,0,0,0-4.18,2.6h0a.584.584,0,0,1-.37.21,5.438,5.438,0,0,0-3.57,2.3,6.852,6.852,0,0,0-1,4.3,10.218,10.218,0,0,0,1.61,4.33c.41.68.87,1.34,1.32,2,.23.35.45.69.66,1.07a3.076,3.076,0,0,1,.43,1.32.35.35,0,0,1-.34.35.321.321,0,0,1-.34-.3v-.011h0a5.008,5.008,0,0,0-1.05-1.93c-.48-.65-1-1.31-1.43-2a11.27,11.27,0,0,1-1.9-4.69,7.915,7.915,0,0,1,1-5.06,6.59,6.59,0,0,1,4.32-3l-.39.23a10.2,10.2,0,0,1,4.77-3.15,13.9,13.9,0,0,1,5.62-.61,14.459,14.459,0,0,1,9.87,5,15.531,15.531,0,0,1,3.8,10.3,21.6,21.6,0,0,1-.93,5.41,38.693,38.693,0,0,1-1.83,5.13.35.35,0,0,1-.45.18h0a.331.331,0,0,1-.185-.429Z" fill="#333"/><path d="M43.37,33.085a13.456,13.456,0,0,1-2.83-1.56,13.869,13.869,0,0,1-2.36-2.24c-.7-.83-1.28-1.76-1.87-2.53-.3-.41-.65-.77-1-1.16a7.485,7.485,0,0,0-1.06-1,19.4,19.4,0,0,0-5-3.35,48.023,48.023,0,0,0-5.82-2.09.34.34,0,0,1-.221-.427v0h0a.35.35,0,0,1,.39-.23h0a36.845,36.845,0,0,1,6.13,1.61,15.5,15.5,0,0,1,7.63,5.9c.62.92,1.12,1.78,1.71,2.59a13.19,13.19,0,0,0,4.52,3.94.31.31,0,0,1-.122.608.317.317,0,0,1-.1-.038Z" fill="#333"/><path d="M31.7,17.635a8.506,8.506,0,0,1,3.7.92,10.428,10.428,0,0,1,3.13,2.22,10,10,0,0,1,2.14,3.23,9.385,9.385,0,0,1,.78,3.77c-.63-1.11-1.14-2.2-1.81-3.18a18.626,18.626,0,0,0-2.18-2.74A23,23,0,0,0,31.7,17.635Z" fill="#333"/><path d="M24.31,13.605a6.539,6.539,0,0,1,2.46-1.83,10.4,10.4,0,0,1,3-.84,11.348,11.348,0,0,1,3.08.06,9.633,9.633,0,0,1,2.92.91h-3a24.176,24.176,0,0,0-2.87.21A22.143,22.143,0,0,0,24.31,13.605Z" fill="#333"/><path d="M27.79,15.205a10.527,10.527,0,0,1,3.78-1.2,12.209,12.209,0,0,1,4,.12,12.67,12.67,0,0,1,2,.58,10.122,10.122,0,0,1,1.79,1,9.467,9.467,0,0,1,2.79,2.85,22.005,22.005,0,0,0-3.28-2,14,14,0,0,0-3.51-1.18A22.638,22.638,0,0,0,27.79,15.205Z" fill="#333"/><path d="M22.26,27.275v-2.5c0-3.44,2.74-2.1,3.53-5.42" fill="none" stroke="#333" stroke-linejoin="round" stroke-width="0.75"/></g></g></g></g></g></svg>